<?xml version="1.0" standalone="no"?>
<!DOCTYPE svg PUBLIC "-//W3C//DTD SVG 20010904//EN"
 "http://www.w3.org/TR/2001/REC-SVG-20010904/DTD/svg10.dtd">
<svg version="1.0" xmlns="http://www.w3.org/2000/svg"
 width="512.000000pt" height="512.000000pt" viewBox="0 0 512.000000 512.000000"
 preserveAspectRatio="xMidYMid meet">
<metadata>
Created by potrace 1.11, written by Peter Selinger 2001-2013
</metadata>
<g transform="translate(0.000000,512.000000) scale(0.100000,-0.100000)"
fill="#000000" stroke="none">
<path d="M2427 4804 c-1 -1 -36 -5 -77 -8 -86 -7 -99 -9 -270 -42 -183 -35
-534 -174 -670 -265 -14 -9 -61 -40 -105 -69 -252 -167 -498 -423 -658 -685
-155 -255 -268 -559 -303 -815 -3 -25 -8 -47 -9 -50 -8 -13 -19 -206 -19 -320
1 -121 9 -259 19 -310 2 -13 7 -42 10 -65 3 -22 17 -85 30 -140 151 -635 569
-1172 1149 -1476 141 -73 234 -111 431 -172 54 -17 185 -45 250 -54 22 -3 58
-8 80 -12 153 -28 543 -15 705 23 14 3 36 8 50 10 223 36 583 192 801 346 318
225 548 486 720 814 96 184 177 412 209 584 5 31 12 68 15 82 26 130 37 393
22 570 -6 82 -34 266 -41 279 -2 3 -7 22 -10 41 -4 29 -31 121 -66 230 -43
135 -156 361 -252 503 -207 308 -489 565 -809 736 -214 114 -494 210 -693 236
-15 3 -35 7 -45 9 -38 12 -454 29 -464 20z m264 -1138 c113 -10 289 -63 389
-118 61 -34 124 -71 130 -78 3 -3 37 -31 75 -62 178 -144 336 -403 370 -607 3
-19 8 -37 10 -41 2 -3 7 -33 11 -65 57 -472 -189 -928 -615 -1141 -71 -35
-167 -72 -211 -80 -14 -3 -41 -9 -60 -14 -241 -62 -598 1 -807 142 -23 15 -46
28 -51 28 -6 0 -12 3 -14 8 -1 4 -32 31 -68 59 -114 92 -215 220 -283 357 -35
73 -75 172 -82 206 -1 3 -6 30 -13 60 -21 99 -22 114 -23 230 0 127 3 156 33
279 76 314 303 591 598 733 53 26 185 78 195 77 3 0 29 4 58 10 115 24 217 29
358 17z"/>
<path d="M2508 3215 c-2 -1 -32 -5 -68 -8 -90 -8 -157 -30 -226 -75 -116 -76
-159 -152 -159 -282 0 -72 4 -93 27 -141 29 -57 74 -105 124 -132 l29 -16 -30
-13 c-48 -20 -111 -70 -134 -104 -48 -70 -63 -132 -59 -235 4 -81 10 -107 35
-160 66 -139 188 -217 369 -234 276 -26 457 10 585 117 26 22 79 106 94 149
22 60 26 87 26 148 -2 128 -55 228 -160 298 -51 34 -53 37 -35 50 101 74 148
160 148 273 0 191 -146 326 -384 356 -49 6 -178 13 -182 9z m145 -260 c31 -24
54 -67 60 -115 15 -127 -121 -209 -235 -142 -95 55 -90 216 7 266 41 22 132
16 168 -9z m-28 -524 c149 -67 153 -301 7 -372 -117 -57 -242 39 -242 184 0
92 40 160 111 191 45 20 76 19 124 -3z"/>
</g>
</svg>
